<?xml version="1.0" standalone="no"?>
<!DOCTYPE svg PUBLIC "-//W3C//DTD SVG 20010904//EN"
 "http://www.w3.org/TR/2001/REC-SVG-20010904/DTD/svg10.dtd">
<svg version="1.0" xmlns="http://www.w3.org/2000/svg"
 width="1163.000000pt" height="980.000000pt" viewBox="0 0 1163.000000 980.000000"
 preserveAspectRatio="xMidYMid meet">

<g transform="translate(0.000000,980.000000) scale(0.100000,-0.100000)"
fill="#000000" stroke="none">
<path d="M3680 6267 c0 -22 30 -250 33 -254 1 0 79 -8 172 -18 935 -91 1775
-409 2083 -788 34 -43 62 -73 62 -68 0 46 -84 208 -154 299 -316 412 -1200
762 -2133 846 -61 5 -63 5 -63 -17z"/>
<path d="M8345 6279 c-678 -72 -1321 -273 -1732 -542 -122 -80 -158 -109 -256
-205 -116 -113 -214 -271 -241 -387 -7 -27 -3 -24 28 19 246 345 905 642 1733
780 132 22 282 41 485 62 62 6 67 8 73 33 5 26 34 229 35 244 0 8 -14 8 -125
-4z"/>
<path d="M3515 5840 c-2 -3 16 -115 40 -250 73 -412 181 -1034 216 -1237 18
-106 35 -190 37 -188 2 2 -3 70 -12 152 -25 230 -126 1206 -126 1221 0 14 99
11 405 -14 553 -45 1066 -169 1407 -340 247 -124 388 -259 423 -406 9 -38 36
-346 66 -768 27 -388 51 -716 53 -730 2 -14 3 355 2 820 -1 935 3 868 -67 986
-208 345 -892 598 -1929 714 -228 25 -510 48 -515 40z"/>
<path d="M8460 5833 c-916 -69 -1631 -246 -2023 -500 -96 -62 -224 -192 -265
-270 -62 -117 -62 -115 -62 -1012 0 -448 2 -812 5 -810 2 3 29 345 59 761 35
474 61 772 69 796 60 175 272 340 597 465 307 119 660 199 1078 247 167 19
540 42 552 35 3 -2 -4 -99 -16 -217 -12 -117 -34 -330 -49 -473 -58 -570 -65
-639 -64 -654 1 -19 35 168 179 993 61 351 110 641 108 645 -2 4 -77 1 -168
-6z"/>
<path d="M3526 4588 c-3 -18 -10 -112 -17 -208 -23 -343 -11 -541 46 -758 27
-103 71 -220 89 -239 6 -6 103 -35 216 -63 173 -44 214 -51 260 -45 138 16
225 64 272 151 23 44 54 152 45 160 -2 2 -19 -18 -39 -45 -65 -87 -170 -139
-289 -142 -77 -3 -387 69 -399 92 -21 37 -93 463 -82 482 2 5 20 6 41 3 58 -9
473 -47 476 -44 2 2 -86 37 -195 77 -110 41 -204 77 -210 81 -5 3 -14 76 -19
161 -6 84 -14 168 -19 184 -26 85 -91 167 -144 180 -24 6 -27 4 -32 -27z"/>
<path d="M8554 4601 c-85 -52 -120 -146 -130 -355 -4 -86 -11 -149 -18 -154
-6 -5 -100 -42 -209 -82 -108 -40 -195 -75 -194 -77 2 -2 118 8 258 21 139 14
255 23 257 21 6 -6 -38 -296 -61 -401 l-22 -99 -160 -38 c-139 -33 -172 -37
-250 -33 -54 2 -106 11 -130 21 -52 22 -119 77 -157 129 l-31 41 7 -48 c13
-107 78 -198 167 -237 27 -11 84 -25 126 -31 77 -10 81 -9 283 43 l205 53 32
65 c37 73 76 212 98 345 25 148 29 348 11 577 -9 114 -16 219 -16 233 0 31
-22 33 -66 6z"/>
<path d="M4172 2788 l3 -253 155 0 154 0 0 25 0 25 -122 3 -122 3 -1 217 c-1
119 -1 220 0 225 0 4 -15 7 -34 7 l-35 0 2 -252z"/>
<path d="M4750 2785 l0 -256 33 3 32 3 0 250 0 250 -32 3 -33 3 0 -256z"/>
<path d="M5130 2785 l0 -257 133 4 c187 6 233 31 244 131 6 53 -15 99 -56 123
-30 18 -30 18 -9 32 45 32 56 108 22 159 -32 49 -60 58 -201 61 l-133 4 0
-257z m264 174 c33 -26 36 -79 6 -109 -18 -18 -31 -20 -113 -18 l-92 3 -3 59
c-5 87 -5 86 91 86 70 0 89 -3 111 -21z m21 -219 c18 -17 25 -34 25 -62 0 -70
-45 -92 -175 -86 l-70 3 -3 74 c-4 107 -8 104 103 99 82 -3 98 -7 120 -28z"/>
<path d="M5802 2788 l3 -253 33 -3 32 -3 0 115 0 116 58 0 c79 0 106 -20 177
-133 58 -93 61 -96 98 -96 20 -1 37 3 37 8 0 17 -119 190 -140 203 -28 18 -25
23 19 37 72 21 106 102 76 177 -27 69 -55 78 -238 82 l-157 4 2 -254z m299
182 c28 -16 42 -48 34 -86 -9 -53 -37 -64 -156 -67 l-104 -2 -3 74 c-2 41 -1
80 2 88 5 11 26 12 107 8 55 -3 109 -10 120 -15z"/>
<path d="M6605 3023 c-33 -83 -185 -484 -185 -489 0 -3 15 -4 32 -2 31 3 35 7
62 81 l29 77 103 0 c70 0 105 -4 111 -12 4 -7 19 -42 33 -78 20 -51 31 -66 49
-68 53 -8 52 1 -16 165 -35 87 -81 200 -101 250 l-37 93 -36 0 c-26 0 -39 -5
-44 -17z m55 -68 c0 -7 16 -55 35 -105 19 -50 35 -96 35 -101 0 -5 -38 -9 -85
-9 l-84 0 24 63 c14 34 32 87 42 119 16 51 33 68 33 33z"/>
<path d="M7104 3027 c-3 -9 -4 -123 -2 -254 l3 -238 33 -3 32 -3 0 115 0 116
58 0 c31 0 68 -6 82 -13 14 -7 55 -59 93 -115 64 -97 70 -102 102 -102 19 0
35 5 35 11 0 17 -109 177 -135 197 -31 25 -31 28 1 36 62 16 104 69 104 131 0
39 -35 99 -67 115 -19 10 -77 15 -180 18 -129 3 -154 1 -159 -11z m301 -61
c47 -31 44 -109 -6 -133 -14 -7 -70 -14 -125 -15 l-99 -3 -3 74 c-4 109 -9
105 109 98 67 -3 108 -10 124 -21z"/>
<path d="M7756 3028 c4 -7 47 -72 95 -144 l88 -131 3 -109 3 -109 30 0 30 0 3
109 3 108 68 97 c37 53 82 117 100 144 l32 47 -38 0 c-38 0 -39 -1 -113 -115
-41 -63 -78 -115 -81 -115 -3 0 -38 52 -78 115 l-73 115 -39 0 c-29 0 -38 -3
-33 -12z"/>
</g>
</svg>
