<?xml version="1.0" standalone="no"?>
<!DOCTYPE svg PUBLIC "-//W3C//DTD SVG 20010904//EN"
 "http://www.w3.org/TR/2001/REC-SVG-20010904/DTD/svg10.dtd">
<svg version="1.0" xmlns="http://www.w3.org/2000/svg"
 width="256.000000pt" height="256.000000pt" viewBox="0 0 256.000000 256.000000"
 preserveAspectRatio="xMidYMid meet">

<g transform="translate(0.000000,256.000000) scale(0.100000,-0.100000)"
fill="#000000" stroke="none">
<path d="M1172 2549 c-566 -43 -1047 -481 -1147 -1044 -21 -117 -21 -333 0
-450 138 -779 967 -1249 1709 -970 280 105 531 326 674 595 297 553 137 1249
-374 1626 -246 182 -547 267 -862 243z m-38 -581 c44 -13 136 -96 136 -123 0
-8 5 -15 10 -15 6 0 10 7 10 15 0 9 21 37 48 63 84 84 181 94 364 36 163 -51
265 -74 331 -74 l57 0 0 -554 c0 -551 0 -555 -21 -561 -42 -14 -168 12 -351
70 -131 42 -200 51 -267 35 -58 -14 -131 -72 -151 -120 -12 -29 -30 -41 -30
-20 0 25 -57 94 -99 118 -40 24 -56 27 -131 27 -72 -1 -104 -7 -213 -42 -150
-50 -277 -76 -324 -67 l-33 6 0 553 0 552 88 6 c61 3 123 16 207 42 66 21 140
44 165 51 58 16 152 17 204 2z"/>
</g>
</svg>
