<?xml version="1.0" encoding="UTF-8"?>
<svg xmlns="http://www.w3.org/2000/svg" xmlns:xlink="http://www.w3.org/1999/xlink" width="25px" height="25px" viewBox="0 0 25 25" version="1.1">
<g id="surface1">
<path style=" stroke:none;fill-rule:nonzero;fill:rgb(0%,0%,0%);fill-opacity:1;" d="M 11.074219 1.882812 C 7.992188 2.363281 5.855469 5.300781 6.324219 8.414062 C 6.515625 9.683594 7.109375 10.796875 8.089844 11.71875 C 10.113281 13.621094 13.203125 13.785156 15.433594 12.097656 C 16.992188 10.925781 17.882812 8.90625 17.679688 7.011719 C 17.519531 5.550781 16.953125 4.390625 15.917969 3.398438 C 14.625 2.164062 12.851562 1.605469 11.074219 1.882812 Z M 12.597656 3.417969 C 13.539062 3.570312 14.414062 4.039062 15.050781 4.734375 C 16.78125 6.628906 16.398438 9.617188 14.242188 11.023438 C 13.519531 11.492188 12.84375 11.6875 11.9375 11.683594 C 10.746094 11.675781 9.730469 11.226562 8.929688 10.359375 C 7.671875 9 7.457031 6.996094 8.398438 5.414062 C 8.664062 4.96875 9.242188 4.359375 9.679688 4.070312 C 10.523438 3.511719 11.621094 3.265625 12.597656 3.417969 Z M 12.597656 3.417969 "/>
<path style=" stroke:none;fill-rule:nonzero;fill:rgb(0%,0%,0%);fill-opacity:1;" d="M 18.714844 13.125 C 18.378906 13.246094 18.117188 13.425781 17.90625 13.679688 C 17.660156 13.980469 15.308594 19.039062 15.238281 19.410156 C 15.210938 19.566406 15.199219 19.78125 15.214844 19.890625 C 15.230469 20 15.453125 20.804688 15.714844 21.675781 C 16.195312 23.316406 16.261719 23.457031 16.558594 23.609375 C 16.851562 23.757812 17.015625 23.714844 18.59375 23.035156 C 19.414062 22.679688 20.191406 22.324219 20.308594 22.242188 C 20.726562 21.953125 20.714844 21.976562 22.558594 17.992188 C 23.28125 16.441406 23.3125 16.367188 23.332031 16.011719 C 23.371094 15.367188 23.125 14.8125 22.648438 14.453125 C 22.519531 14.359375 21.832031 14.007812 21.109375 13.671875 L 19.800781 13.066406 L 19.386719 13.050781 C 19.074219 13.035156 18.90625 13.054688 18.714844 13.125 Z M 20.546875 15.136719 C 21.183594 15.433594 21.71875 15.703125 21.738281 15.738281 C 21.757812 15.765625 21.777344 15.835938 21.777344 15.882812 C 21.777344 16.023438 19.484375 20.917969 19.390625 20.972656 C 19.195312 21.089844 17.421875 21.832031 17.398438 21.804688 C 17.382812 21.792969 17.230469 21.3125 17.0625 20.742188 L 16.753906 19.703125 L 17.808594 17.429688 C 19.195312 14.449219 19.117188 14.597656 19.269531 14.597656 C 19.335938 14.597656 19.914062 14.84375 20.546875 15.136719 Z M 20.546875 15.136719 "/>
<path style=" stroke:none;fill-rule:nonzero;fill:rgb(0%,0%,0%);fill-opacity:1;" d="M 10.597656 14.214844 C 7.925781 14.394531 5.269531 15.179688 3.636719 16.273438 C 2.679688 16.917969 2.042969 17.613281 1.636719 18.460938 C 1.351562 19.058594 1.308594 19.355469 1.328125 20.707031 L 1.34375 21.898438 L 1.488281 22.183594 C 1.671875 22.542969 2.0625 22.90625 2.433594 23.054688 L 2.710938 23.167969 L 14.28125 23.167969 L 14.46875 23.050781 C 14.71875 22.898438 14.863281 22.605469 14.828125 22.324219 C 14.804688 22.078125 14.6875 21.898438 14.453125 21.738281 L 14.292969 21.628906 L 8.667969 21.628906 C 4.15625 21.628906 3.027344 21.617188 2.960938 21.566406 C 2.882812 21.507812 2.875 21.410156 2.890625 20.453125 L 2.90625 19.402344 L 3.097656 19.023438 C 3.65625 17.878906 5.492188 16.78125 7.789062 16.214844 C 9.726562 15.738281 12.226562 15.601562 14.257812 15.867188 C 14.703125 15.925781 14.898438 15.882812 15.121094 15.664062 C 15.410156 15.386719 15.433594 14.949219 15.179688 14.628906 C 15.03125 14.4375 14.867188 14.371094 14.378906 14.3125 C 13.246094 14.167969 11.835938 14.128906 10.597656 14.214844 Z M 10.597656 14.214844 "/>
</g>
</svg>
