<?xml version="1.0" encoding="UTF-8"?>
<svg xmlns="http://www.w3.org/2000/svg" xmlns:xlink="http://www.w3.org/1999/xlink" width="25px" height="25px" viewBox="0 0 25 25" version="1.1">
<defs>
<filter id="alpha" filterUnits="objectBoundingBox" x="0%" y="0%" width="100%" height="100%">
  <feColorMatrix type="matrix" in="SourceGraphic" values="0 0 0 0 1 0 0 0 0 1 0 0 0 0 1 0 0 0 1 0"/>
</filter>
<mask id="mask0">
  <g filter="url(#alpha)">
<rect x="0" y="0" width="25" height="25" style="fill:rgb(0%,0%,0%);fill-opacity:0.964706;stroke:none;"/>
  </g>
</mask>
<clipPath id="clip1">
  <rect x="0" y="0" width="25" height="25"/>
</clipPath>
<g id="surface5" clip-path="url(#clip1)">
<path style=" stroke:none;fill-rule:evenodd;fill:rgb(0%,0%,0%);fill-opacity:1;" d="M 9.007812 4.125 C 11.320312 4.117188 13.632812 4.125 15.941406 4.148438 C 16.722656 4.371094 17.132812 4.882812 17.164062 5.6875 C 18.335938 5.679688 19.507812 5.6875 20.679688 5.710938 C 21.953125 5.976562 22.691406 6.75 22.898438 8.03125 C 22.933594 11.515625 22.933594 15 22.898438 18.480469 C 22.691406 19.765625 21.953125 20.539062 20.679688 20.800781 C 15.210938 20.832031 9.742188 20.832031 4.273438 20.800781 C 3.023438 20.542969 2.28125 19.785156 2.050781 18.53125 C 2.019531 15.015625 2.019531 11.5 2.050781 7.984375 C 2.28125 6.726562 3.023438 5.96875 4.273438 5.710938 C 5.445312 5.6875 6.617188 5.679688 7.789062 5.6875 C 7.828125 4.882812 8.238281 4.359375 9.007812 4.125 Z M 9.253906 5.199219 C 11.402344 5.191406 13.550781 5.199219 15.699219 5.226562 C 15.863281 5.277344 15.988281 5.382812 16.0625 5.542969 C 16.097656 5.996094 16.097656 6.453125 16.0625 6.910156 C 15.988281 7.066406 15.863281 7.175781 15.699219 7.226562 C 13.550781 7.257812 11.402344 7.257812 9.253906 7.226562 C 9.085938 7.175781 8.964844 7.066406 8.886719 6.910156 C 8.855469 6.453125 8.855469 5.996094 8.886719 5.542969 C 8.972656 5.382812 9.09375 5.269531 9.253906 5.199219 Z M 4.46875 6.761719 C 5.574219 6.761719 6.679688 6.761719 7.789062 6.761719 C 7.820312 7.566406 8.226562 8.082031 9.007812 8.300781 C 11.320312 8.332031 13.632812 8.332031 15.941406 8.300781 C 16.726562 8.082031 17.132812 7.566406 17.164062 6.761719 C 18.351562 6.742188 19.542969 6.765625 20.726562 6.835938 C 21.429688 7.082031 21.796875 7.578125 21.828125 8.324219 C 21.859375 11.613281 21.859375 14.902344 21.828125 18.1875 C 21.757812 19.035156 21.3125 19.550781 20.484375 19.726562 C 15.144531 19.757812 9.804688 19.757812 4.46875 19.726562 C 3.640625 19.550781 3.191406 19.035156 3.125 18.1875 C 3.09375 14.902344 3.09375 11.613281 3.125 8.324219 C 3.199219 7.476562 3.648438 6.957031 4.46875 6.761719 Z M 7.933594 10.914062 C 8.914062 11.078125 9.3125 11.648438 9.132812 12.621094 C 8.675781 13.449219 8.03125 13.636719 7.203125 13.183594 C 6.644531 12.648438 6.570312 12.054688 6.984375 11.402344 C 7.246094 11.125 7.566406 10.964844 7.933594 10.914062 Z M 7.933594 10.914062 "/>
</g>
<mask id="mask1">
  <g filter="url(#alpha)">
<rect x="0" y="0" width="25" height="25" style="fill:rgb(0%,0%,0%);fill-opacity:0.94902;stroke:none;"/>
  </g>
</mask>
<clipPath id="clip2">
  <rect x="0" y="0" width="25" height="25"/>
</clipPath>
<g id="surface8" clip-path="url(#clip2)">
<path style=" stroke:none;fill-rule:evenodd;fill:rgb(0%,0%,0%);fill-opacity:1;" d="M 7.691406 9.839844 C 9.019531 9.808594 9.875 10.429688 10.253906 11.695312 C 10.414062 12.769531 10.046875 13.605469 9.15625 14.210938 C 8.21875 14.679688 7.324219 14.613281 6.46875 14.015625 C 5.65625 13.238281 5.4375 12.320312 5.8125 11.253906 C 6.195312 10.457031 6.820312 9.984375 7.691406 9.839844 Z M 7.933594 10.914062 C 7.566406 10.964844 7.246094 11.125 6.984375 11.402344 C 6.570312 12.054688 6.644531 12.648438 7.203125 13.183594 C 8.03125 13.636719 8.675781 13.449219 9.132812 12.621094 C 9.3125 11.648438 8.914062 11.078125 7.933594 10.914062 Z M 7.933594 10.914062 "/>
</g>
<mask id="mask2">
  <g filter="url(#alpha)">
<rect x="0" y="0" width="25" height="25" style="fill:rgb(0%,0%,0%);fill-opacity:0.960784;stroke:none;"/>
  </g>
</mask>
<clipPath id="clip3">
  <rect x="0" y="0" width="25" height="25"/>
</clipPath>
<g id="surface11" clip-path="url(#clip3)">
<path style=" stroke:none;fill-rule:evenodd;fill:rgb(0%,0%,0%);fill-opacity:1;" d="M 13.304688 10.375 C 15.355469 10.367188 17.40625 10.375 19.457031 10.398438 C 19.808594 10.613281 19.882812 10.898438 19.679688 11.253906 C 19.617188 11.332031 19.546875 11.386719 19.457031 11.425781 C 17.40625 11.457031 15.355469 11.457031 13.304688 11.425781 C 12.851562 11.074219 12.851562 10.726562 13.304688 10.375 Z M 13.304688 10.375 "/>
</g>
<mask id="mask3">
  <g filter="url(#alpha)">
<rect x="0" y="0" width="25" height="25" style="fill:rgb(0%,0%,0%);fill-opacity:0.960784;stroke:none;"/>
  </g>
</mask>
<clipPath id="clip4">
  <rect x="0" y="0" width="25" height="25"/>
</clipPath>
<g id="surface14" clip-path="url(#clip4)">
<path style=" stroke:none;fill-rule:evenodd;fill:rgb(0%,0%,0%);fill-opacity:1;" d="M 13.304688 13.5 C 15.355469 13.492188 17.40625 13.5 19.457031 13.523438 C 19.808594 13.738281 19.882812 14.023438 19.679688 14.378906 C 19.617188 14.457031 19.546875 14.511719 19.457031 14.550781 C 17.40625 14.582031 15.355469 14.582031 13.304688 14.550781 C 12.851562 14.199219 12.851562 13.851562 13.304688 13.5 Z M 13.304688 13.5 "/>
</g>
<mask id="mask4">
  <g filter="url(#alpha)">
<rect x="0" y="0" width="25" height="25" style="fill:rgb(0%,0%,0%);fill-opacity:0.941176;stroke:none;"/>
  </g>
</mask>
<clipPath id="clip5">
  <rect x="0" y="0" width="25" height="25"/>
</clipPath>
<g id="surface17" clip-path="url(#clip5)">
<path style=" stroke:none;fill-rule:evenodd;fill:rgb(0%,0%,0%);fill-opacity:1;" d="M 7.691406 14.867188 C 9.460938 14.855469 10.625 15.6875 11.179688 17.359375 C 11.238281 17.648438 11.277344 17.941406 11.304688 18.238281 C 10.929688 18.238281 10.554688 18.238281 10.179688 18.238281 C 10.128906 17.050781 9.523438 16.3125 8.375 16.015625 C 6.789062 15.917969 5.910156 16.65625 5.738281 18.238281 C 5.378906 18.238281 5.019531 18.238281 4.664062 18.238281 C 4.78125 16.3125 5.789062 15.1875 7.691406 14.867188 Z M 7.691406 14.867188 "/>
</g>
<mask id="mask5">
  <g filter="url(#alpha)">
<rect x="0" y="0" width="25" height="25" style="fill:rgb(0%,0%,0%);fill-opacity:0.960784;stroke:none;"/>
  </g>
</mask>
<clipPath id="clip6">
  <rect x="0" y="0" width="25" height="25"/>
</clipPath>
<g id="surface20" clip-path="url(#clip6)">
<path style=" stroke:none;fill-rule:evenodd;fill:rgb(0%,0%,0%);fill-opacity:1;" d="M 13.304688 16.625 C 15.355469 16.617188 17.40625 16.625 19.457031 16.648438 C 19.808594 16.863281 19.882812 17.148438 19.679688 17.503906 C 19.617188 17.582031 19.546875 17.636719 19.457031 17.675781 C 17.40625 17.707031 15.355469 17.707031 13.304688 17.675781 C 12.851562 17.324219 12.851562 16.976562 13.304688 16.625 Z M 13.304688 16.625 "/>
</g>
</defs>
<g id="surface1">
<use xlink:href="#surface5" mask="url(#mask0)"/>
<use xlink:href="#surface8" mask="url(#mask1)"/>
<use xlink:href="#surface11" mask="url(#mask2)"/>
<use xlink:href="#surface14" mask="url(#mask3)"/>
<use xlink:href="#surface17" mask="url(#mask4)"/>
<use xlink:href="#surface20" mask="url(#mask5)"/>
</g>
</svg>
