<?xml version="1.0" encoding="UTF-8"?>
<svg xmlns="http://www.w3.org/2000/svg" xmlns:xlink="http://www.w3.org/1999/xlink" width="25px" height="25px" viewBox="0 0 25 25" version="1.1">
<defs>
<filter id="alpha" filterUnits="objectBoundingBox" x="0%" y="0%" width="100%" height="100%">
  <feColorMatrix type="matrix" in="SourceGraphic" values="0 0 0 0 1 0 0 0 0 1 0 0 0 0 1 0 0 0 1 0"/>
</filter>
<mask id="mask0">
  <g filter="url(#alpha)">
<rect x="0" y="0" width="25" height="25" style="fill:rgb(0%,0%,0%);fill-opacity:0.984314;stroke:none;"/>
  </g>
</mask>
<clipPath id="clip1">
  <rect x="0" y="0" width="25" height="25"/>
</clipPath>
<g id="surface5" clip-path="url(#clip1)">
<path style=" stroke:none;fill-rule:evenodd;fill:rgb(0%,0%,0%);fill-opacity:1;" d="M 24.976562 5.394531 C 24.976562 10.117188 24.976562 14.835938 24.976562 19.554688 C 24.722656 20.433594 24.15625 20.996094 23.265625 21.242188 C 16.074219 21.273438 8.878906 21.273438 1.683594 21.242188 C 0.796875 20.996094 0.226562 20.433594 -0.0234375 19.554688 C -0.0234375 14.835938 -0.0234375 10.117188 -0.0234375 5.394531 C 0.226562 4.515625 0.796875 3.957031 1.683594 3.710938 C 8.878906 3.679688 16.074219 3.679688 23.265625 3.710938 C 24.15625 3.957031 24.722656 4.515625 24.976562 5.394531 Z M 2.5625 5.199219 C 9.164062 5.144531 15.769531 5.136719 22.386719 5.175781 C 19.539062 8.042969 16.671875 10.890625 13.792969 13.71875 C 12.914062 14.339844 12.035156 14.339844 11.15625 13.71875 C 8.285156 10.886719 5.417969 8.046875 2.5625 5.199219 Z M 1.441406 6.273438 C 3.554688 8.304688 5.636719 10.375 7.691406 12.476562 C 5.625 14.566406 3.550781 16.648438 1.464844 18.726562 C 1.441406 14.574219 1.433594 10.425781 1.441406 6.273438 Z M 23.460938 6.273438 C 23.519531 10.417969 23.527344 14.566406 23.484375 18.726562 C 21.402344 16.648438 19.328125 14.566406 17.261719 12.476562 C 19.3125 10.390625 21.382812 8.324219 23.460938 6.273438 Z M 8.765625 13.597656 C 9.160156 13.917969 9.535156 14.269531 9.886719 14.648438 C 11.613281 16.046875 13.339844 16.046875 15.0625 14.648438 C 15.414062 14.289062 15.773438 13.941406 16.136719 13.597656 C 18.242188 15.632812 20.328125 17.691406 22.386719 19.773438 C 15.78125 19.808594 9.171875 19.808594 2.5625 19.773438 C 4.625 17.707031 6.691406 15.644531 8.765625 13.597656 Z M 8.765625 13.597656 "/>
</g>
</defs>
<g id="surface1">
<use xlink:href="#surface5" mask="url(#mask0)"/>
</g>
</svg>
