<?xml version="1.0" encoding="UTF-8"?>
<svg xmlns="http://www.w3.org/2000/svg" xmlns:xlink="http://www.w3.org/1999/xlink" width="25px" height="25px" viewBox="0 0 25 25" version="1.1">
<g id="surface1">
<path style=" stroke:none;fill-rule:nonzero;fill:rgb(0%,0%,0%);fill-opacity:1;" d="M 11.914062 0.804688 C 11.875 0.816406 11.675781 0.847656 11.476562 0.878906 C 9.515625 1.195312 7.792969 2.621094 7.054688 4.527344 C 6.742188 5.347656 6.691406 5.746094 6.65625 7.480469 L 6.625 9.03125 L 6.3125 9.03125 C 4.808594 9.03125 3.5 10.078125 3.195312 11.519531 C 3.089844 12.007812 3.097656 21.257812 3.199219 21.753906 C 3.441406 22.910156 4.429688 23.894531 5.597656 24.144531 C 6.097656 24.253906 18.898438 24.253906 19.410156 24.144531 C 20.292969 23.960938 21.113281 23.324219 21.523438 22.507812 C 21.886719 21.785156 21.875 21.988281 21.875 16.625 C 21.875 11.335938 21.878906 11.480469 21.5625 10.824219 C 21.027344 9.714844 19.925781 9.03125 18.6875 9.03125 L 18.375 9.03125 L 18.34375 7.480469 C 18.320312 6.160156 18.300781 5.859375 18.214844 5.445312 C 17.730469 3.179688 16.015625 1.433594 13.769531 0.921875 C 13.390625 0.835938 12.121094 0.75 11.914062 0.804688 Z M 13.257812 2.417969 C 14.589844 2.652344 15.734375 3.519531 16.332031 4.75 C 16.703125 5.523438 16.753906 5.800781 16.78125 7.527344 L 16.8125 9.03125 L 8.1875 9.03125 L 8.21875 7.527344 C 8.246094 5.804688 8.296875 5.523438 8.667969 4.753906 C 9.507812 3.023438 11.34375 2.085938 13.257812 2.417969 Z M 19.390625 10.746094 C 19.722656 10.902344 19.976562 11.148438 20.15625 11.488281 L 20.289062 11.742188 L 20.289062 21.507812 L 20.15625 21.757812 C 19.960938 22.128906 19.816406 22.28125 19.472656 22.464844 L 19.164062 22.632812 L 5.835938 22.632812 L 5.527344 22.464844 C 5.191406 22.285156 4.996094 22.078125 4.824219 21.726562 L 4.710938 21.507812 L 4.710938 11.742188 L 4.84375 11.488281 C 4.992188 11.210938 5.265625 10.921875 5.492188 10.800781 C 5.882812 10.59375 5.742188 10.601562 12.574219 10.609375 L 19.117188 10.621094 Z M 19.390625 10.746094 "/>
<path style=" stroke:none;fill-rule:nonzero;fill:rgb(0%,0%,0%);fill-opacity:1;" d="M 12.027344 14.082031 C 11.070312 14.394531 10.679688 15.605469 11.273438 16.414062 L 11.425781 16.621094 L 11.425781 17.601562 C 11.425781 18.519531 11.429688 18.597656 11.539062 18.796875 C 11.597656 18.921875 11.71875 19.066406 11.8125 19.125 C 11.957031 19.222656 12.042969 19.238281 12.5 19.238281 C 12.960938 19.238281 13.042969 19.222656 13.183594 19.125 C 13.519531 18.902344 13.546875 18.796875 13.574219 17.625 L 13.597656 16.578125 L 13.753906 16.367188 C 14.039062 15.980469 14.09375 15.328125 13.867188 14.871094 C 13.734375 14.589844 13.433594 14.292969 13.148438 14.15625 C 12.871094 14.019531 12.324219 13.984375 12.027344 14.082031 Z M 12.027344 14.082031 "/>
</g>
</svg>
