<?xml version="1.0" standalone="no"?>
<!DOCTYPE svg PUBLIC "-//W3C//DTD SVG 20010904//EN"
 "http://www.w3.org/TR/2001/REC-SVG-20010904/DTD/svg10.dtd">
<svg version="1.0" xmlns="http://www.w3.org/2000/svg"
 width="512.000000pt" height="512.000000pt" viewBox="0 0 512.000000 512.000000"
 preserveAspectRatio="xMidYMid meet">

<g transform="translate(0.000000,512.000000) scale(0.100000,-0.100000)"
fill="#000000" stroke="none">
<path d="M2252 4836 c-588 -112 -998 -624 -969 -1211 31 -628 543 -1115 1172
-1115 263 0 495 78 707 238 319 240 500 650 458 1037 -54 509 -391 904 -879
1032 -120 31 -371 41 -489 19z m376 -322 c247 -51 468 -220 581 -445 72 -145
93 -233 93 -389 0 -156 -21 -244 -93 -389 -114 -227 -336 -395 -588 -446 -112
-23 -294 -16 -401 15 -220 63 -411 218 -519 421 -266 501 20 1110 579 1235 80
18 257 17 348 -2z"/>
<path d="M3686 2500 c-41 -13 -94 -68 -106 -110 -5 -19 -10 -85 -10 -147 l0
-111 -67 -22 c-38 -13 -94 -36 -126 -53 l-58 -30 -87 85 c-100 99 -118 110
-177 110 -91 0 -157 -66 -157 -157 0 -59 11 -77 110 -177 l85 -87 -30 -58
c-17 -32 -40 -88 -53 -125 l-22 -68 -111 0 c-62 0 -128 -5 -149 -10 -49 -14
-104 -76 -113 -129 -9 -53 25 -126 74 -158 31 -21 46 -23 167 -23 l133 0 16
-58 c9 -31 33 -90 52 -130 l36 -73 -91 -92 c-98 -99 -116 -136 -101 -206 20
-96 132 -149 223 -106 17 8 69 53 114 98 l83 83 73 -37 c40 -20 96 -42 124
-50 l52 -13 0 -121 c0 -105 3 -126 23 -165 41 -83 130 -113 213 -74 67 32 78
62 84 217 l5 139 72 23 c40 12 96 36 126 53 l54 30 84 -85 c46 -47 98 -91 116
-99 133 -57 266 76 209 209 -8 18 -52 70 -99 116 l-85 84 30 54 c17 30 41 86
53 126 l23 72 139 5 c155 6 185 17 217 84 39 83 9 172 -74 214 -39 19 -60 22
-165 22 l-121 0 -13 52 c-8 28 -30 84 -50 124 l-37 73 83 83 c45 45 90 97 98
114 43 91 -10 203 -106 223 -70 15 -107 -3 -206 -101 l-92 -91 -73 36 c-40 19
-99 43 -130 52 l-58 16 0 133 c0 121 -2 136 -23 167 -23 36 -97 80 -132 78
-11 0 -33 -5 -49 -9z m227 -712 c65 -31 165 -121 201 -182 67 -115 75 -278 19
-399 -44 -93 -118 -169 -211 -214 -64 -32 -85 -37 -161 -41 -147 -7 -243 31
-343 136 -90 94 -120 172 -120 304 1 184 101 329 279 404 52 22 70 24 168 22
94 -3 118 -7 168 -30z"/>
<path d="M2160 2313 c-235 -18 -509 -64 -725 -124 -650 -178 -1077 -517 -1155
-915 -7 -37 -10 -145 -8 -294 3 -231 3 -236 30 -292 34 -73 103 -142 176 -176
l57 -27 978 -3 c890 -2 981 -1 1013 14 50 24 77 68 82 133 5 70 -22 115 -88
149 l-44 22 -931 0 c-711 0 -934 3 -943 12 -9 9 -12 69 -12 208 0 169 3 205
19 253 83 241 429 474 898 606 248 70 508 108 792 118 207 7 246 18 289 83 30
45 28 130 -6 177 -38 54 -73 63 -234 61 -78 -1 -163 -3 -188 -5z"/>
</g>
</svg>
