<?xml version="1.0" encoding="UTF-8"?>
<svg xmlns="http://www.w3.org/2000/svg" xmlns:xlink="http://www.w3.org/1999/xlink" width="24px" height="24px" viewBox="0 0 24 24" version="1.1">
<g id="surface1">
<path style=" stroke:none;fill-rule:nonzero;fill:rgb(0%,0%,0%);fill-opacity:1;" d="M 10.554688 1.332031 C 7.800781 1.855469 5.878906 4.257812 6.015625 7.007812 C 6.160156 9.953125 8.558594 12.234375 11.507812 12.234375 C 12.742188 12.234375 13.828125 11.867188 14.820312 11.117188 C 16.316406 9.992188 17.164062 8.070312 16.96875 6.257812 C 16.714844 3.871094 15.136719 2.019531 12.847656 1.421875 C 12.285156 1.273438 11.109375 1.226562 10.554688 1.332031 Z M 12.320312 2.839844 C 13.476562 3.078125 14.511719 3.871094 15.042969 4.925781 C 15.378906 5.605469 15.476562 6.019531 15.476562 6.75 C 15.476562 7.480469 15.378906 7.894531 15.042969 8.574219 C 14.507812 9.636719 13.46875 10.425781 12.285156 10.664062 C 11.761719 10.773438 10.90625 10.738281 10.40625 10.59375 C 9.375 10.296875 8.480469 9.570312 7.972656 8.621094 C 6.726562 6.273438 8.066406 3.417969 10.6875 2.832031 C 11.0625 2.746094 11.890625 2.75 12.320312 2.839844 Z M 12.320312 2.839844 "/>
<path style=" stroke:none;fill-rule:nonzero;fill:rgb(0%,0%,0%);fill-opacity:1;" d="M 17.277344 12.28125 C 17.085938 12.34375 16.835938 12.601562 16.78125 12.796875 C 16.757812 12.886719 16.734375 13.195312 16.734375 13.484375 L 16.734375 14.007812 L 16.421875 14.109375 C 16.242188 14.171875 15.980469 14.277344 15.828125 14.359375 L 15.558594 14.5 L 15.148438 14.101562 C 14.679688 13.636719 14.597656 13.585938 14.320312 13.585938 C 13.894531 13.585938 13.585938 13.894531 13.585938 14.320312 C 13.585938 14.597656 13.636719 14.679688 14.101562 15.148438 L 14.5 15.558594 L 14.359375 15.828125 C 14.277344 15.980469 14.171875 16.242188 14.109375 16.414062 L 14.007812 16.734375 L 13.484375 16.734375 C 13.195312 16.734375 12.886719 16.757812 12.789062 16.78125 C 12.558594 16.847656 12.300781 17.136719 12.257812 17.386719 C 12.214844 17.632812 12.375 17.976562 12.605469 18.125 C 12.75 18.226562 12.820312 18.234375 13.386719 18.234375 L 14.011719 18.234375 L 14.085938 18.507812 C 14.128906 18.652344 14.242188 18.929688 14.328125 19.117188 L 14.5 19.457031 L 14.070312 19.890625 C 13.613281 20.351562 13.527344 20.527344 13.597656 20.855469 C 13.691406 21.304688 14.21875 21.554688 14.644531 21.351562 C 14.722656 21.3125 14.96875 21.101562 15.179688 20.890625 L 15.566406 20.503906 L 15.910156 20.675781 C 16.097656 20.769531 16.359375 20.875 16.492188 20.910156 L 16.734375 20.972656 L 16.734375 21.539062 C 16.734375 22.03125 16.75 22.128906 16.84375 22.3125 C 17.035156 22.703125 17.453125 22.84375 17.839844 22.660156 C 18.15625 22.507812 18.207031 22.367188 18.234375 21.640625 L 18.257812 20.992188 L 18.59375 20.882812 C 18.78125 20.828125 19.046875 20.714844 19.1875 20.632812 L 19.4375 20.492188 L 19.832031 20.890625 C 20.046875 21.113281 20.292969 21.320312 20.375 21.355469 C 21 21.625 21.625 21 21.355469 20.375 C 21.320312 20.292969 21.113281 20.046875 20.890625 19.832031 L 20.492188 19.4375 L 20.632812 19.1875 C 20.714844 19.046875 20.828125 18.78125 20.882812 18.59375 L 20.992188 18.257812 L 21.640625 18.234375 C 22.367188 18.207031 22.507812 18.15625 22.660156 17.839844 C 22.84375 17.453125 22.703125 17.035156 22.3125 16.835938 C 22.128906 16.75 22.03125 16.734375 21.539062 16.734375 L 20.972656 16.734375 L 20.910156 16.492188 C 20.875 16.359375 20.769531 16.097656 20.675781 15.910156 L 20.503906 15.566406 L 20.890625 15.179688 C 21.101562 14.96875 21.3125 14.722656 21.351562 14.644531 C 21.554688 14.21875 21.304688 13.691406 20.855469 13.597656 C 20.527344 13.527344 20.351562 13.613281 19.890625 14.070312 L 19.457031 14.5 L 19.117188 14.328125 C 18.929688 14.242188 18.652344 14.128906 18.507812 14.085938 L 18.234375 14.011719 L 18.234375 13.386719 C 18.234375 12.820312 18.226562 12.75 18.125 12.605469 C 18.019531 12.4375 17.671875 12.230469 17.507812 12.238281 C 17.457031 12.238281 17.351562 12.261719 17.277344 12.28125 Z M 18.34375 15.617188 C 18.648438 15.765625 19.117188 16.1875 19.285156 16.472656 C 19.597656 17.011719 19.636719 17.773438 19.375 18.34375 C 19.167969 18.777344 18.820312 19.132812 18.382812 19.34375 C 18.085938 19.496094 17.984375 19.519531 17.628906 19.539062 C 16.941406 19.570312 16.492188 19.390625 16.023438 18.898438 C 15.601562 18.460938 15.460938 18.09375 15.460938 17.476562 C 15.464844 16.613281 15.933594 15.933594 16.765625 15.582031 C 17.011719 15.476562 17.09375 15.46875 17.554688 15.476562 C 17.996094 15.492188 18.109375 15.511719 18.34375 15.617188 Z M 18.34375 15.617188 "/>
<path style=" stroke:none;fill-rule:nonzero;fill:rgb(0%,0%,0%);fill-opacity:1;" d="M 10.125 13.15625 C 9.023438 13.242188 7.738281 13.457031 6.726562 13.738281 C 3.679688 14.574219 1.679688 16.164062 1.3125 18.027344 C 1.28125 18.203125 1.265625 18.707031 1.273438 19.40625 C 1.289062 20.488281 1.289062 20.511719 1.414062 20.773438 C 1.574219 21.117188 1.898438 21.441406 2.242188 21.601562 L 2.507812 21.726562 L 7.09375 21.742188 C 11.265625 21.75 11.691406 21.746094 11.839844 21.675781 C 12.074219 21.5625 12.203125 21.355469 12.226562 21.050781 C 12.25 20.722656 12.121094 20.511719 11.8125 20.351562 L 11.605469 20.25 L 7.242188 20.25 C 3.910156 20.25 2.863281 20.234375 2.820312 20.195312 C 2.78125 20.152344 2.765625 19.871094 2.765625 19.21875 C 2.765625 18.425781 2.78125 18.257812 2.855469 18.03125 C 3.242188 16.902344 4.867188 15.8125 7.0625 15.191406 C 8.226562 14.863281 9.445312 14.6875 10.777344 14.640625 C 11.746094 14.605469 11.929688 14.554688 12.132812 14.25 C 12.273438 14.039062 12.261719 13.640625 12.101562 13.421875 C 11.925781 13.167969 11.761719 13.125 11.007812 13.132812 C 10.640625 13.140625 10.242188 13.148438 10.125 13.15625 Z M 10.125 13.15625 "/>
</g>
</svg>
