<?xml version="1.0" encoding="UTF-8"?>
<svg xmlns="http://www.w3.org/2000/svg" xmlns:xlink="http://www.w3.org/1999/xlink" width="100px" height="100px" viewBox="0 0 384 384" version="1.1">
<g id="surface1">
<path style=" stroke:none;fill-rule:nonzero;fill:rgb(0%,0%,0%);fill-opacity:1;" d="M 168.898438 21.300781 C 124.800781 29.699219 94.050781 68.101562 96.226562 112.125 C 98.550781 159.226562 136.949219 195.75 184.125 195.75 C 203.851562 195.75 221.25 189.898438 237.148438 177.898438 C 261.074219 159.898438 274.648438 129.148438 271.5 100.125 C 267.449219 61.949219 242.175781 32.324219 205.574219 22.726562 C 196.574219 20.398438 177.75 19.648438 168.898438 21.300781 Z M 197.101562 45.449219 C 215.625 49.273438 232.199219 61.949219 240.675781 78.824219 C 246.074219 89.699219 247.648438 96.300781 247.648438 108 C 247.648438 119.699219 246.074219 126.300781 240.675781 137.175781 C 232.125 154.199219 215.476562 166.800781 196.574219 170.625 C 188.175781 172.351562 174.523438 171.824219 166.5 169.5 C 150 164.773438 135.675781 153.148438 127.574219 137.925781 C 107.625 100.351562 129.074219 54.675781 171 45.300781 C 177 43.949219 190.273438 44.023438 197.101562 45.449219 Z M 197.101562 45.449219 "/>
<path style=" stroke:none;fill-rule:nonzero;fill:rgb(0%,0%,0%);fill-opacity:1;" d="M 276.449219 196.5 C 273.375 197.476562 269.398438 201.601562 268.5 204.75 C 268.125 206.175781 267.75 211.125 267.75 215.773438 L 267.75 224.101562 L 262.726562 225.75 C 259.875 226.726562 255.675781 228.449219 253.273438 229.726562 L 248.925781 231.976562 L 242.398438 225.601562 C 234.898438 218.175781 233.550781 217.351562 229.125 217.351562 C 222.300781 217.351562 217.351562 222.300781 217.351562 229.125 C 217.351562 233.550781 218.175781 234.898438 225.601562 242.398438 L 231.976562 248.925781 L 229.726562 253.273438 C 228.449219 255.675781 226.726562 259.875 225.75 262.648438 L 224.101562 267.75 L 215.773438 267.75 C 211.125 267.75 206.175781 268.125 204.601562 268.5 C 200.925781 269.550781 196.800781 274.199219 196.125 278.175781 C 195.449219 282.148438 198 287.625 201.675781 290.023438 C 204 291.601562 205.125 291.75 214.199219 291.75 L 224.175781 291.75 L 225.375 296.101562 C 226.050781 298.425781 227.851562 302.851562 229.273438 305.851562 L 231.976562 311.324219 L 225.148438 318.226562 C 217.800781 325.648438 216.449219 328.425781 217.574219 333.675781 C 219.074219 340.875 227.476562 344.851562 234.300781 341.625 C 235.574219 341.023438 239.476562 337.648438 242.851562 334.273438 L 249.074219 328.050781 L 254.550781 330.824219 C 257.550781 332.324219 261.75 333.976562 263.851562 334.574219 L 267.75 335.550781 L 267.75 344.625 C 267.75 352.5 267.976562 354.074219 269.476562 357 C 272.550781 363.226562 279.226562 365.476562 285.449219 362.550781 C 290.476562 360.148438 291.300781 357.898438 291.75 346.273438 L 292.125 335.851562 L 297.523438 334.125 C 300.523438 333.226562 304.726562 331.425781 306.976562 330.148438 L 311.023438 327.898438 L 317.324219 334.273438 C 320.773438 337.800781 324.675781 341.101562 326.023438 341.699219 C 336 345.976562 345.976562 336 341.699219 326.023438 C 341.101562 324.675781 337.800781 320.773438 334.273438 317.324219 L 327.898438 311.023438 L 330.148438 306.976562 C 331.425781 304.726562 333.226562 300.523438 334.125 297.523438 L 335.851562 292.125 L 346.273438 291.75 C 357.898438 291.300781 360.148438 290.476562 362.550781 285.449219 C 365.476562 279.226562 363.226562 272.550781 357 269.398438 C 354.074219 267.976562 352.5 267.75 344.625 267.75 L 335.550781 267.75 L 334.574219 263.851562 C 333.976562 261.75 332.324219 257.550781 330.824219 254.550781 L 328.050781 249.074219 L 334.273438 242.851562 C 337.648438 239.476562 341.023438 235.574219 341.625 234.300781 C 344.851562 227.476562 340.875 219.074219 333.675781 217.574219 C 328.425781 216.449219 325.648438 217.800781 318.226562 225.148438 L 311.324219 231.976562 L 305.851562 229.273438 C 302.851562 227.851562 298.425781 226.050781 296.101562 225.375 L 291.75 224.175781 L 291.75 214.199219 C 291.75 205.125 291.601562 204 290.023438 201.675781 C 288.300781 198.976562 282.75 195.675781 280.125 195.824219 C 279.300781 195.824219 277.648438 196.199219 276.449219 196.5 Z M 293.476562 249.898438 C 298.351562 252.226562 305.851562 258.976562 308.550781 263.550781 C 313.574219 272.175781 314.175781 284.398438 309.976562 293.476562 C 306.675781 300.449219 301.125 306.148438 294.148438 309.523438 C 289.351562 311.925781 287.773438 312.300781 282.074219 312.601562 C 271.050781 313.125 263.851562 310.273438 256.351562 302.398438 C 249.601562 295.351562 247.351562 289.5 247.351562 279.601562 C 247.425781 265.800781 254.925781 254.925781 268.273438 249.300781 C 272.175781 247.648438 273.523438 247.5 280.875 247.648438 C 287.925781 247.875 289.726562 248.175781 293.476562 249.898438 Z M 293.476562 249.898438 "/>
<path style=" stroke:none;fill-rule:nonzero;fill:rgb(0%,0%,0%);fill-opacity:1;" d="M 162 210.523438 C 144.375 211.875 123.824219 215.324219 107.625 219.824219 C 58.875 233.175781 26.851562 258.601562 21 288.449219 C 20.476562 291.226562 20.25 299.324219 20.398438 310.5 C 20.625 327.824219 20.625 328.199219 22.648438 332.398438 C 25.199219 337.875 30.375 343.050781 35.851562 345.601562 L 40.125 347.625 L 113.476562 347.851562 C 180.226562 348 187.050781 347.925781 189.449219 346.800781 C 193.199219 345 195.226562 341.699219 195.601562 336.824219 C 195.976562 331.574219 193.949219 328.199219 189 325.648438 L 185.699219 324 L 115.875 324 C 62.550781 324 45.824219 323.773438 45.148438 323.101562 C 44.476562 322.425781 44.25 317.925781 44.25 307.5 C 44.25 294.824219 44.476562 292.125 45.675781 288.523438 C 51.898438 270.449219 77.851562 252.976562 113.023438 243.074219 C 131.625 237.824219 151.125 234.976562 172.425781 234.226562 C 187.949219 233.699219 190.875 232.875 194.101562 228 C 196.351562 224.625 196.199219 218.25 193.648438 214.726562 C 190.800781 210.675781 188.175781 210 176.101562 210.148438 C 170.25 210.226562 163.875 210.375 162 210.523438 Z M 162 210.523438 "/>
</g>
</svg>
