<?xml version="1.0" encoding="UTF-8"?>
<svg xmlns="http://www.w3.org/2000/svg" xmlns:xlink="http://www.w3.org/1999/xlink" width="25px" height="25px" viewBox="0 0 25 25" version="1.1">
<g id="surface1">
<path style=" stroke:none;fill-rule:nonzero;fill:rgb(0%,0%,0%);fill-opacity:1;" d="M 11.449219 1.394531 C 9.238281 1.792969 7.382812 3.445312 6.761719 5.585938 C 6.578125 6.230469 6.523438 6.640625 6.527344 7.347656 C 6.546875 11.605469 10.933594 14.46875 14.859375 12.792969 C 16 12.300781 17.046875 11.375 17.675781 10.300781 C 18.109375 9.554688 18.402344 8.59375 18.480469 7.640625 C 18.519531 7.175781 18.441406 6.375 18.304688 5.835938 C 17.71875 3.535156 15.84375 1.796875 13.507812 1.390625 C 12.972656 1.296875 11.976562 1.304688 11.449219 1.394531 Z M 13.339844 2.949219 C 14.417969 3.160156 15.460938 3.824219 16.09375 4.714844 C 16.933594 5.898438 17.148438 7.480469 16.652344 8.828125 C 16.148438 10.171875 15.015625 11.195312 13.597656 11.578125 C 13.042969 11.726562 11.964844 11.734375 11.402344 11.582031 C 10.511719 11.34375 9.601562 10.746094 9.035156 10.042969 C 8.703125 9.628906 8.324219 8.863281 8.199219 8.324219 C 8.042969 7.691406 8.050781 6.835938 8.21875 6.195312 C 8.648438 4.546875 9.960938 3.296875 11.621094 2.953125 C 12.046875 2.867188 12.894531 2.867188 13.339844 2.949219 Z M 13.339844 2.949219 "/>
<path style=" stroke:none;fill-rule:nonzero;fill:rgb(0%,0%,0%);fill-opacity:1;" d="M 10.035156 13.851562 C 7.816406 14.160156 5.941406 15.300781 4.699219 17.105469 C 4.191406 17.835938 3.726562 18.933594 3.546875 19.824219 C 3.410156 20.488281 3.355469 21.289062 3.414062 21.683594 C 3.558594 22.613281 4.296875 23.425781 5.179688 23.628906 C 5.472656 23.695312 19.527344 23.695312 19.820312 23.628906 C 20.214844 23.539062 20.570312 23.328125 20.902344 23.003906 C 21.496094 22.410156 21.679688 21.804688 21.582031 20.769531 C 21.484375 19.730469 21.242188 18.828125 20.820312 17.992188 C 19.765625 15.902344 17.914062 14.472656 15.589844 13.953125 C 15.136719 13.851562 14.984375 13.847656 12.648438 13.835938 C 11.289062 13.832031 10.117188 13.835938 10.035156 13.851562 Z M 15.070312 15.453125 C 16.808594 15.75 18.304688 16.785156 19.230469 18.328125 C 19.644531 19.023438 19.925781 19.898438 20.019531 20.804688 C 20.082031 21.375 20.042969 21.621094 19.867188 21.84375 C 19.640625 22.136719 20.121094 22.117188 12.484375 22.117188 L 5.484375 22.117188 L 5.316406 22.007812 C 5.226562 21.949219 5.097656 21.792969 5.035156 21.664062 C 4.921875 21.433594 4.917969 21.421875 4.976562 20.847656 C 5.074219 19.90625 5.34375 19.042969 5.773438 18.328125 C 6.683594 16.804688 8.183594 15.761719 9.886719 15.457031 C 10.472656 15.355469 14.464844 15.351562 15.070312 15.453125 Z M 15.070312 15.453125 "/>
</g>
</svg>
