<?xml version="1.0" encoding="UTF-8"?>
<svg xmlns="http://www.w3.org/2000/svg" xmlns:xlink="http://www.w3.org/1999/xlink" width="25px" height="25px" viewBox="0 0 25 25" version="1.1">
<g id="surface1">
<path style=" stroke:none;fill-rule:nonzero;fill:rgb(0%,0%,0%);fill-opacity:1;" d="M 7.921875 0.0546875 C 7.691406 0.121094 7.386719 0.4375 7.320312 0.691406 C 7.207031 1.128906 7.378906 1.582031 7.75 1.8125 L 7.933594 1.929688 L 13.75 1.953125 L 19.5625 1.976562 L 19.933594 2.15625 C 20.375 2.378906 20.648438 2.660156 20.863281 3.113281 L 21.019531 3.441406 L 21.046875 11.207031 L 21.070312 18.96875 L 21.1875 19.15625 C 21.25 19.257812 21.390625 19.398438 21.5 19.472656 C 21.664062 19.585938 21.753906 19.605469 22.023438 19.605469 C 22.289062 19.605469 22.378906 19.585938 22.542969 19.472656 C 22.652344 19.398438 22.792969 19.257812 22.855469 19.15625 L 22.972656 18.96875 L 22.972656 11.132812 C 22.972656 3.964844 22.96875 3.269531 22.890625 3.003906 C 22.679688 2.234375 22.359375 1.667969 21.851562 1.15625 C 21.519531 0.816406 20.953125 0.433594 20.566406 0.292969 C 19.804688 0.00390625 20.269531 0.0234375 13.917969 0.015625 C 10.304688 0.0078125 8.019531 0.0234375 7.921875 0.0546875 Z M 7.921875 0.0546875 "/>
<path style=" stroke:none;fill-rule:nonzero;fill:rgb(0%,0%,0%);fill-opacity:1;" d="M 5.128906 4.027344 C 3.480469 4.363281 2.261719 5.632812 2.007812 7.273438 C 1.964844 7.542969 1.953125 9.480469 1.964844 14.695312 C 1.976562 22.386719 1.957031 21.800781 2.246094 22.566406 C 2.570312 23.433594 3.519531 24.382812 4.386719 24.707031 C 5.136719 24.988281 4.785156 24.976562 10.523438 24.976562 C 16.261719 24.976562 15.910156 24.988281 16.660156 24.707031 C 17.53125 24.382812 18.476562 23.4375 18.800781 22.566406 C 19.085938 21.804688 19.066406 22.359375 19.066406 14.476562 C 19.066406 7.878906 19.0625 7.226562 18.984375 6.957031 C 18.773438 6.191406 18.453125 5.625 17.945312 5.113281 C 17.613281 4.769531 17.046875 4.390625 16.660156 4.246094 C 15.902344 3.964844 16.300781 3.980469 10.644531 3.96875 C 6.488281 3.964844 5.382812 3.972656 5.128906 4.027344 Z M 15.976562 6.089844 C 16.429688 6.304688 16.714844 6.578125 16.933594 7.019531 L 17.113281 7.390625 L 17.113281 21.5625 L 16.933594 21.933594 C 16.714844 22.378906 16.429688 22.652344 15.976562 22.867188 L 15.648438 23.023438 L 5.394531 23.023438 L 5.070312 22.867188 C 4.613281 22.652344 4.332031 22.378906 4.113281 21.933594 L 3.929688 21.5625 L 3.929688 7.398438 L 4.085938 7.070312 C 4.171875 6.890625 4.332031 6.644531 4.4375 6.527344 C 4.652344 6.292969 5.097656 6.035156 5.402344 5.960938 C 5.511719 5.9375 7.6875 5.917969 10.621094 5.921875 L 15.648438 5.933594 Z M 15.976562 6.089844 "/>
</g>
</svg>
