<?xml version="1.0" encoding="UTF-8"?>
<svg xmlns="http://www.w3.org/2000/svg" xmlns:xlink="http://www.w3.org/1999/xlink" width="25px" height="25px" viewBox="0 0 25 25" version="1.1">
<g id="surface1">
<path style=" stroke:none;fill-rule:nonzero;fill:rgb(0%,0%,0%);fill-opacity:1;" d="M 5.6875 0.0742188 C 4.703125 0.289062 3.9375 0.882812 3.492188 1.765625 C 3.148438 2.457031 3.167969 1.722656 3.183594 12.644531 L 3.199219 22.484375 L 3.304688 22.800781 C 3.632812 23.757812 4.390625 24.519531 5.34375 24.84375 L 5.738281 24.976562 L 13.15625 24.988281 C 21.371094 25.003906 20.859375 25.023438 21.300781 24.683594 C 21.449219 24.570312 21.574219 24.414062 21.675781 24.214844 L 21.828125 23.910156 L 21.828125 12.546875 C 21.828125 -0.1875 21.859375 0.941406 21.457031 0.492188 C 21.328125 0.351562 21.136719 0.210938 20.988281 0.140625 L 20.726562 0.0234375 L 13.355469 0.015625 C 7.378906 0.0078125 5.929688 0.0195312 5.6875 0.0742188 Z M 12.949219 4.378906 C 12.964844 7.40625 12.96875 7.601562 13.058594 7.761719 C 13.355469 8.328125 13.964844 8.519531 14.457031 8.210938 C 14.738281 8.035156 14.867188 7.867188 15.425781 6.96875 C 15.675781 6.570312 15.882812 6.25 15.894531 6.25 C 15.902344 6.25 16.125 6.585938 16.378906 6.996094 C 16.933594 7.886719 17.121094 8.109375 17.398438 8.246094 C 17.652344 8.367188 18.011719 8.378906 18.242188 8.269531 C 18.46875 8.164062 18.730469 7.855469 18.792969 7.632812 C 18.828125 7.507812 18.847656 6.375 18.847656 4.332031 L 18.847656 1.21875 L 19.671875 1.21875 C 20.363281 1.21875 20.511719 1.234375 20.578125 1.296875 C 20.644531 1.367188 20.65625 2.226562 20.65625 10.039062 L 20.65625 18.699219 L 13.355469 18.699219 C 6.992188 18.699219 6.007812 18.710938 5.6875 18.773438 C 5.296875 18.855469 4.878906 19.027344 4.601562 19.214844 C 4.503906 19.28125 4.40625 19.335938 4.386719 19.335938 C 4.332031 19.335938 4.335938 3.261719 4.390625 2.894531 C 4.515625 2.046875 5.199219 1.34375 6.027344 1.21875 C 6.164062 1.199219 7.773438 1.179688 9.605469 1.175781 L 12.933594 1.171875 Z M 17.628906 3.929688 C 17.628906 5.449219 17.617188 6.6875 17.609375 6.6875 C 17.597656 6.6875 17.300781 6.230469 16.949219 5.667969 C 16.371094 4.75 16.289062 4.636719 16.117188 4.574219 C 15.890625 4.480469 15.628906 4.535156 15.472656 4.703125 C 15.421875 4.761719 15.117188 5.214844 14.808594 5.710938 C 14.496094 6.210938 14.222656 6.636719 14.199219 6.664062 C 14.179688 6.6875 14.160156 5.464844 14.160156 3.941406 L 14.160156 1.171875 L 17.628906 1.171875 Z M 20.605469 20.019531 C 20.636719 20.078125 20.648438 20.351562 20.644531 20.6875 L 20.628906 21.265625 L 13.671875 21.289062 C 8.144531 21.308594 6.691406 21.328125 6.605469 21.375 C 6.367188 21.507812 6.28125 21.894531 6.421875 22.167969 C 6.582031 22.480469 6.097656 22.460938 13.722656 22.460938 L 20.65625 22.460938 L 20.65625 23.046875 C 20.65625 23.570312 20.644531 23.640625 20.558594 23.730469 C 20.460938 23.828125 20.394531 23.828125 13.417969 23.828125 C 9.488281 23.828125 6.234375 23.808594 6.070312 23.785156 C 4.308594 23.523438 3.761719 21.253906 5.214844 20.253906 C 5.722656 19.902344 5.117188 19.925781 13.242188 19.925781 C 20.5 19.921875 20.550781 19.921875 20.605469 20.019531 Z M 20.605469 20.019531 "/>
</g>
</svg>
