<?xml version="1.0" encoding="UTF-8"?>
<svg xmlns="http://www.w3.org/2000/svg" xmlns:xlink="http://www.w3.org/1999/xlink" width="25px" height="25px" viewBox="0 0 25 25" version="1.1">
<g id="surface1">
<path style=" stroke:none;fill-rule:nonzero;fill:rgb(0%,0%,0%);fill-opacity:1;" d="M 16.09375 0.0546875 C 12.875 0.390625 10.15625 2.652344 9.234375 5.746094 C 8.996094 6.550781 8.917969 7.109375 8.917969 8.03125 C 8.917969 8.890625 8.984375 9.417969 9.183594 10.152344 L 9.28125 10.515625 L 4.71875 15.082031 C 2.210938 17.597656 0.121094 19.722656 0.078125 19.808594 C 0.0117188 19.945312 0 20.25 0 22.191406 C 0 24.324219 0.00390625 24.421875 0.0976562 24.609375 C 0.160156 24.734375 0.265625 24.839844 0.390625 24.902344 C 0.578125 24.996094 0.675781 25 2.824219 25 L 5.058594 25 L 5.277344 24.859375 C 5.570312 24.671875 6.507812 23.695312 6.59375 23.492188 C 6.644531 23.355469 6.644531 23.230469 6.585938 22.695312 C 6.539062 22.265625 6.535156 22.050781 6.566406 22.039062 C 6.59375 22.03125 6.957031 21.992188 7.378906 21.953125 C 8.222656 21.871094 8.320312 21.84375 8.507812 21.648438 C 8.671875 21.46875 8.722656 21.265625 8.792969 20.417969 C 8.824219 20.039062 8.867188 19.714844 8.882812 19.707031 C 8.898438 19.695312 9.191406 19.722656 9.53125 19.761719 C 10.148438 19.832031 10.160156 19.828125 10.371094 19.726562 C 10.726562 19.554688 10.792969 19.363281 10.792969 18.464844 L 10.792969 17.722656 L 11.519531 17.722656 C 11.917969 17.722656 12.308594 17.699219 12.386719 17.675781 C 12.460938 17.644531 12.953125 17.191406 13.480469 16.664062 L 14.445312 15.710938 L 14.921875 15.835938 C 15.675781 16.03125 16.125 16.082031 16.992188 16.082031 C 17.886719 16.078125 18.457031 16 19.253906 15.765625 C 20.558594 15.375 21.695312 14.691406 22.660156 13.710938 C 24.785156 11.558594 25.523438 8.464844 24.601562 5.566406 C 23.457031 1.980469 19.867188 -0.34375 16.09375 0.0546875 Z M 17.847656 1.539062 C 21.835938 2.109375 24.386719 6.035156 23.265625 9.886719 C 22.832031 11.371094 21.859375 12.695312 20.597656 13.53125 C 20.039062 13.894531 19.828125 14.003906 19.238281 14.222656 C 18.457031 14.515625 17.871094 14.613281 16.96875 14.617188 C 16.097656 14.617188 15.617188 14.546875 14.894531 14.304688 C 14.332031 14.117188 14.085938 14.117188 13.839844 14.300781 C 13.734375 14.378906 13.242188 14.851562 12.746094 15.351562 L 11.839844 16.257812 L 10.875 16.257812 C 9.796875 16.257812 9.660156 16.289062 9.457031 16.570312 C 9.359375 16.707031 9.351562 16.785156 9.335938 17.5 L 9.320312 18.269531 L 9.140625 18.242188 C 9.042969 18.226562 8.742188 18.199219 8.472656 18.183594 C 8.011719 18.152344 7.972656 18.160156 7.816406 18.265625 C 7.53125 18.464844 7.484375 18.59375 7.398438 19.554688 C 7.355469 20.039062 7.304688 20.449219 7.285156 20.464844 C 7.265625 20.484375 6.855469 20.53125 6.371094 20.574219 C 5.410156 20.667969 5.285156 20.707031 5.09375 20.996094 C 4.957031 21.191406 4.953125 21.332031 5.058594 22.253906 L 5.140625 22.953125 L 4.855469 23.246094 L 4.570312 23.535156 L 1.464844 23.535156 L 1.464844 20.433594 L 6.011719 15.894531 C 8.511719 13.394531 10.621094 11.265625 10.699219 11.160156 C 10.882812 10.914062 10.882812 10.667969 10.695312 10.105469 C 10.453125 9.382812 10.382812 8.902344 10.382812 8.03125 C 10.386719 7.128906 10.484375 6.542969 10.777344 5.761719 C 10.996094 5.171875 11.105469 4.960938 11.46875 4.402344 C 12.835938 2.324219 15.375 1.179688 17.847656 1.539062 Z M 17.847656 1.539062 "/>
<path style=" stroke:none;fill-rule:nonzero;fill:rgb(0%,0%,0%);fill-opacity:1;" d="M 18.28125 3.925781 C 17.402344 4.246094 16.847656 5.054688 16.847656 5.976562 C 16.847656 6.628906 17.027344 7.066406 17.480469 7.519531 C 17.941406 7.976562 18.363281 8.152344 19.027344 8.152344 C 20.238281 8.152344 21.191406 7.203125 21.191406 5.980469 C 21.191406 5.042969 20.628906 4.242188 19.742188 3.921875 C 19.3125 3.765625 18.707031 3.769531 18.28125 3.925781 Z M 19.40625 5.367188 C 19.625 5.511719 19.726562 5.707031 19.726562 5.980469 C 19.726562 6.253906 19.625 6.449219 19.40625 6.597656 C 19.3125 6.65625 19.175781 6.6875 19.019531 6.6875 C 18.863281 6.6875 18.726562 6.65625 18.632812 6.597656 C 18.414062 6.449219 18.3125 6.253906 18.3125 5.980469 C 18.3125 5.824219 18.34375 5.6875 18.402344 5.59375 C 18.550781 5.375 18.746094 5.273438 19.019531 5.273438 C 19.175781 5.273438 19.3125 5.308594 19.40625 5.367188 Z M 19.40625 5.367188 "/>
</g>
</svg>
