<?xml version="1.0" encoding="UTF-8"?>
<svg xmlns="http://www.w3.org/2000/svg" xmlns:xlink="http://www.w3.org/1999/xlink" width="25px" height="25px" viewBox="0 0 25 25" version="1.1">
<defs>
<filter id="alpha" filterUnits="objectBoundingBox" x="0%" y="0%" width="100%" height="100%">
  <feColorMatrix type="matrix" in="SourceGraphic" values="0 0 0 0 1 0 0 0 0 1 0 0 0 0 1 0 0 0 1 0"/>
</filter>
<mask id="mask0">
  <g filter="url(#alpha)">
<rect x="0" y="0" width="25" height="25" style="fill:rgb(0%,0%,0%);fill-opacity:0.952941;stroke:none;"/>
  </g>
</mask>
<clipPath id="clip1">
  <rect x="0" y="0" width="25" height="25"/>
</clipPath>
<g id="surface5" clip-path="url(#clip1)">
<path style=" stroke:none;fill-rule:evenodd;fill:rgb(0%,0%,0%);fill-opacity:1;" d="M 3.394531 0.953125 C 5.230469 0.796875 6.410156 1.59375 6.933594 3.34375 C 7.144531 4.914062 6.550781 6.0625 5.152344 6.789062 C 3.589844 7.308594 2.328125 6.910156 1.367188 5.589844 C 0.65625 4.265625 0.777344 3.03125 1.734375 1.878906 C 2.203125 1.417969 2.757812 1.109375 3.394531 0.953125 Z M 3.929688 2.125 C 4.945312 2.203125 5.554688 2.742188 5.761719 3.734375 C 5.75 5.144531 5.042969 5.820312 3.636719 5.761719 C 2.5 5.421875 2.019531 4.664062 2.195312 3.492188 C 2.496094 2.679688 3.074219 2.222656 3.929688 2.125 Z M 3.929688 2.125 "/>
</g>
<mask id="mask1">
  <g filter="url(#alpha)">
<rect x="0" y="0" width="25" height="25" style="fill:rgb(0%,0%,0%);fill-opacity:0.956863;stroke:none;"/>
  </g>
</mask>
<clipPath id="clip2">
  <rect x="0" y="0" width="25" height="25"/>
</clipPath>
<g id="surface8" clip-path="url(#clip2)">
<path style=" stroke:none;fill-rule:evenodd;fill:rgb(0%,0%,0%);fill-opacity:1;" d="M 11.597656 2.125 C 15.324219 2.101562 19.050781 2.125 22.777344 2.195312 C 23.628906 2.488281 24.082031 3.082031 24.144531 3.980469 C 24.058594 4.90625 23.570312 5.5 22.679688 5.761719 C 18.921875 5.792969 15.160156 5.792969 11.402344 5.761719 C 10.460938 5.523438 9.972656 4.921875 9.9375 3.953125 C 10.003906 2.902344 10.558594 2.292969 11.597656 2.125 Z M 11.644531 3.34375 C 15.210938 3.335938 18.773438 3.34375 22.339844 3.367188 C 22.820312 3.542969 22.957031 3.859375 22.753906 4.320312 C 22.667969 4.425781 22.5625 4.496094 22.4375 4.539062 C 18.808594 4.574219 15.175781 4.574219 11.546875 4.539062 C 11.082031 4.308594 10.992188 3.976562 11.28125 3.539062 C 11.390625 3.441406 11.511719 3.378906 11.644531 3.34375 Z M 11.644531 3.34375 "/>
</g>
<mask id="mask2">
  <g filter="url(#alpha)">
<rect x="0" y="0" width="25" height="25" style="fill:rgb(0%,0%,0%);fill-opacity:0.952941;stroke:none;"/>
  </g>
</mask>
<clipPath id="clip3">
  <rect x="0" y="0" width="25" height="25"/>
</clipPath>
<g id="surface11" clip-path="url(#clip3)">
<path style=" stroke:none;fill-rule:evenodd;fill:rgb(0%,0%,0%);fill-opacity:1;" d="M 3.441406 9.449219 C 5.25 9.320312 6.414062 10.117188 6.933594 11.839844 C 7.171875 13.425781 6.578125 14.570312 5.152344 15.28125 C 3.460938 15.824219 2.148438 15.347656 1.21875 13.84375 C 0.585938 12.214844 0.96875 10.890625 2.367188 9.863281 C 2.714844 9.679688 3.074219 9.542969 3.441406 9.449219 Z M 3.589844 10.667969 C 4.628906 10.582031 5.339844 11.019531 5.710938 11.988281 C 5.902344 13.148438 5.4375 13.90625 4.320312 14.257812 C 3.253906 14.371094 2.542969 13.921875 2.195312 12.914062 C 2.027344 12.121094 2.265625 11.480469 2.90625 10.984375 C 3.125 10.855469 3.355469 10.75 3.589844 10.667969 Z M 3.589844 10.667969 "/>
</g>
<mask id="mask3">
  <g filter="url(#alpha)">
<rect x="0" y="0" width="25" height="25" style="fill:rgb(0%,0%,0%);fill-opacity:0.956863;stroke:none;"/>
  </g>
</mask>
<clipPath id="clip4">
  <rect x="0" y="0" width="25" height="25"/>
</clipPath>
<g id="surface14" clip-path="url(#clip4)">
<path style=" stroke:none;fill-rule:evenodd;fill:rgb(0%,0%,0%);fill-opacity:1;" d="M 11.253906 10.667969 C 15.046875 10.660156 18.839844 10.667969 22.632812 10.695312 C 23.617188 11.011719 24.078125 11.683594 24.023438 12.71875 C 23.882812 13.527344 23.421875 14.039062 22.632812 14.257812 C 18.839844 14.289062 15.046875 14.289062 11.253906 14.257812 C 10.132812 13.878906 9.6875 13.109375 9.914062 11.9375 C 10.148438 11.285156 10.597656 10.863281 11.253906 10.667969 Z M 11.449219 11.890625 C 15.113281 11.882812 18.773438 11.890625 22.4375 11.914062 C 22.957031 12.289062 22.957031 12.664062 22.4375 13.039062 C 18.773438 13.070312 15.113281 13.070312 11.449219 13.039062 C 10.933594 12.652344 10.933594 12.269531 11.449219 11.890625 Z M 11.449219 11.890625 "/>
</g>
<mask id="mask4">
  <g filter="url(#alpha)">
<rect x="0" y="0" width="25" height="25" style="fill:rgb(0%,0%,0%);fill-opacity:0.952941;stroke:none;"/>
  </g>
</mask>
<clipPath id="clip5">
  <rect x="0" y="0" width="25" height="25"/>
</clipPath>
<g id="surface17" clip-path="url(#clip5)">
<path style=" stroke:none;fill-rule:evenodd;fill:rgb(0%,0%,0%);fill-opacity:1;" d="M 3.394531 17.945312 C 5.230469 17.789062 6.410156 18.585938 6.933594 20.335938 C 7.144531 21.90625 6.550781 23.054688 5.152344 23.78125 C 3.589844 24.300781 2.328125 23.902344 1.367188 22.582031 C 0.65625 21.257812 0.777344 20.023438 1.734375 18.871094 C 2.203125 18.410156 2.757812 18.101562 3.394531 17.945312 Z M 3.929688 19.117188 C 4.945312 19.195312 5.554688 19.734375 5.761719 20.726562 C 5.75 22.136719 5.042969 22.8125 3.636719 22.753906 C 2.5 22.414062 2.019531 21.65625 2.195312 20.484375 C 2.496094 19.671875 3.074219 19.214844 3.929688 19.117188 Z M 3.929688 19.117188 "/>
</g>
<mask id="mask5">
  <g filter="url(#alpha)">
<rect x="0" y="0" width="25" height="25" style="fill:rgb(0%,0%,0%);fill-opacity:0.956863;stroke:none;"/>
  </g>
</mask>
<clipPath id="clip6">
  <rect x="0" y="0" width="25" height="25"/>
</clipPath>
<g id="surface20" clip-path="url(#clip6)">
<path style=" stroke:none;fill-rule:evenodd;fill:rgb(0%,0%,0%);fill-opacity:1;" d="M 11.351562 19.164062 C 15.128906 19.15625 18.90625 19.164062 22.679688 19.1875 C 23.578125 19.441406 24.066406 20.035156 24.144531 20.972656 C 24.105469 21.617188 23.828125 22.128906 23.316406 22.507812 C 23.128906 22.617188 22.933594 22.699219 22.730469 22.753906 C 19.035156 22.832031 15.339844 22.851562 11.644531 22.804688 C 10.746094 22.714844 10.183594 22.234375 9.960938 21.363281 C 9.832031 20.246094 10.296875 19.515625 11.351562 19.164062 Z M 11.5 20.386719 C 15.144531 20.378906 18.789062 20.386719 22.4375 20.410156 C 22.84375 20.605469 22.949219 20.90625 22.753906 21.3125 C 22.652344 21.457031 22.511719 21.546875 22.339844 21.582031 C 18.773438 21.613281 15.210938 21.613281 11.644531 21.582031 C 11.175781 21.445312 11.023438 21.144531 11.179688 20.679688 C 11.28125 20.570312 11.386719 20.472656 11.5 20.386719 Z M 11.5 20.386719 "/>
</g>
</defs>
<g id="surface1">
<use xlink:href="#surface5" mask="url(#mask0)"/>
<use xlink:href="#surface8" mask="url(#mask1)"/>
<use xlink:href="#surface11" mask="url(#mask2)"/>
<use xlink:href="#surface14" mask="url(#mask3)"/>
<use xlink:href="#surface17" mask="url(#mask4)"/>
<use xlink:href="#surface20" mask="url(#mask5)"/>
</g>
</svg>
