<?xml version="1.0" standalone="no"?>
<!DOCTYPE svg PUBLIC "-//W3C//DTD SVG 20010904//EN"
 "http://www.w3.org/TR/2001/REC-SVG-20010904/DTD/svg10.dtd">
<svg version="1.0" xmlns="http://www.w3.org/2000/svg"
 width="512.000000pt" height="512.000000pt" viewBox="0 0 512.000000 512.000000"
 preserveAspectRatio="xMidYMid meet">

<g transform="translate(0.000000,512.000000) scale(0.100000,-0.100000)"
fill="#000000" stroke="none">
<path d="M2352 4835 c-163 -30 -363 -117 -492 -214 -84 -63 -214 -199 -269
-280 -64 -94 -137 -253 -167 -366 -35 -132 -44 -355 -21 -490 41 -233 144
-438 306 -608 228 -240 523 -367 852 -367 192 0 355 38 524 123 276 138 491
387 589 682 75 229 75 504 0 730 -35 105 -112 254 -173 335 -62 82 -198 214
-276 267 -134 90 -308 161 -463 188 -103 18 -310 18 -410 0z m378 -319 c167
-35 308 -112 431 -235 167 -168 249 -364 249 -601 0 -237 -82 -433 -249 -601
-167 -166 -364 -248 -597 -249 -180 0 -329 44 -474 141 -189 127 -319 318
-366 539 -18 84 -18 256 0 340 70 331 329 592 661 665 80 18 264 18 345 1z"/>
<path d="M1596 2630 c-483 -166 -869 -557 -1030 -1041 -71 -212 -86 -340 -86
-710 0 -258 2 -293 20 -350 24 -77 78 -151 143 -196 99 -67 -33 -63 1917 -63
1948 0 1817 -4 1916 63 66 44 120 118 145 200 20 64 21 84 16 400 -5 353 -11
416 -63 594 -140 484 -504 886 -971 1073 -57 23 -127 46 -157 52 -50 11 -58
10 -102 -13 l-49 -25 -285 -513 -285 -513 -5 300 c-5 285 -6 302 -26 329 -73
98 -195 98 -268 0 -20 -27 -21 -44 -26 -329 l-5 -300 -284 511 c-305 549 -304
547 -389 557 -25 3 -67 -6 -126 -26z m438 -1050 c253 -457 409 -729 427 -745
58 -48 149 -45 204 8 21 20 179 297 425 742 216 391 395 712 397 715 2 2 38
-13 81 -34 250 -123 466 -332 596 -577 58 -109 92 -199 123 -329 24 -98 26
-126 30 -421 5 -286 3 -317 -12 -332 -15 -16 -142 -17 -1745 -17 -1603 0
-1730 1 -1745 17 -15 15 -17 46 -12 332 4 246 8 333 22 391 42 191 122 369
232 522 74 103 227 249 334 321 72 47 222 127 239 127 3 0 184 -324 404 -720z"/>
<path d="M3336 1418 c-109 -63 -106 -222 6 -279 37 -19 55 -20 298 -17 243 3
260 4 286 24 53 39 69 71 69 134 0 63 -16 95 -69 134 -26 20 -43 21 -289 24
-256 2 -263 2 -301 -20z"/>
</g>
</svg>
