<svg width="256" height="256" xmlns="http://www.w3.org/2000/svg" preserveAspectRatio="xMidYMid meet" version="1.0">

 <g>
  <title>Layer 1</title>
  <g id="svg_1" fill="#000000" transform="translate(0 256) scale(0.1 -0.1)">
   <path fill="#331f14" id="svg_2" d="m1172,2549c-566,-43 -1047,-481 -1147,-1044c-21,-117 -21,-333 0,-450c138,-779 967,-1249 1709,-970c280,105 531,326 674,595c297,553 137,1249 -374,1626c-246,182 -547,267 -862,243zm-38,-581c44,-13 136,-96 136,-123c0,-8 5,-15 10,-15c6,0 10,7 10,15c0,9 21,37 48,63c84,84 181,94 364,36c163,-51 265,-74 331,-74l57,0l0,-554c0,-551 0,-555 -21,-561c-42,-14 -168,12 -351,70c-131,42 -200,51 -267,35c-58,-14 -131,-72 -151,-120c-12,-29 -30,-41 -30,-20c0,25 -57,94 -99,118c-40,24 -56,27 -131,27c-72,-1 -104,-7 -213,-42c-150,-50 -277,-76 -324,-67l-33,6l0,553l0,552l88,6c61,3 123,16 207,42c66,21 140,44 165,51c58,16 152,17 204,2z"/>
  </g>
 </g>
</svg>