<?xml version="1.0" standalone="no"?>
<!DOCTYPE svg PUBLIC "-//W3C//DTD SVG 20010904//EN"
 "http://www.w3.org/TR/2001/REC-SVG-20010904/DTD/svg10.dtd">
<svg version="1.0" xmlns="http://www.w3.org/2000/svg"
 width="512.000000pt" height="512.000000pt" viewBox="0 0 512.000000 512.000000"
 preserveAspectRatio="xMidYMid meet">

<g transform="translate(0.000000,512.000000) scale(0.100000,-0.100000)"
fill="#000000" stroke="none">
<path d="M2345 4834 c-453 -81 -833 -420 -960 -858 -38 -132 -49 -216 -48
-361 4 -872 902 -1458 1706 -1115 234 101 448 290 577 510 89 153 149 350 165
545 8 95 -8 259 -36 370 -120 471 -504 827 -983 910 -109 19 -313 18 -421 -1z
m387 -318 c221 -43 434 -179 564 -362 172 -242 216 -566 114 -842 -103 -275
-335 -485 -625 -563 -114 -31 -335 -32 -450 -1 -182 49 -369 171 -485 315 -68
85 -145 242 -171 352 -32 130 -30 305 4 436 88 338 357 594 697 664 87 18 261
18 352 1z"/>
<path d="M2055 2283 c-454 -63 -838 -297 -1093 -666 -104 -150 -199 -375 -236
-557 -28 -136 -39 -300 -27 -381 30 -190 181 -357 362 -398 60 -14 2938 -14
2998 0 81 18 154 61 222 128 121 121 159 245 139 457 -20 213 -70 398 -156
569 -216 428 -595 721 -1071 827 -93 21 -124 22 -603 24 -278 1 -518 0 -535
-3z m1031 -328 c356 -61 663 -273 852 -589 85 -142 143 -321 162 -507 13 -117
5 -167 -31 -213 -47 -60 52 -56 -1512 -56 l-1434 0 -34 23 c-19 12 -45 44 -58
70 -23 47 -24 50 -12 167 20 193 75 370 163 516 187 312 494 526 843 588 120
21 937 22 1061 1z"/>
</g>
</svg>
